# xmcd
#
# Track frame offsets:
# 150
# 13742
# 30647
# 44960
# 62398
# 76823
# 93295
# 110312
# 125862
# 138263
# 152292
# 166639
# 179220
# 192985
#
# Disc length: 2746 seconds
#
#
# Revision: 0
# Processed by: cddbd v1.5.1PL0 Copyright (c) Steve Scherf et al.
# Submitted via: FreeRIP 2.941 
#
DISCID=b30ab80e
DTITLE=Ronaldo Viola e João Carvalho - Duelo de Paixão
DYEAR=1900
DGENRE=Sertanejo
TTITLE0=Ronaldo Viola e João Carvalho - Duelo de Paixão
TTITLE1=Ronaldo Viola e João Carvalho - Irresistível Paixão
TTITLE2=Ronaldo Viola e João Carvalho - Se Não Guenta Não Vem
TTITLE3=Ronaldo Viola e João Carvalho - Desatino
TTITLE4=Ronaldo Viola e João Carvalho - Quarenta Gruas de Paixão
TTITLE5=Ronaldo Viola e João Carvalho - Só Dá Você
TTITLE6=Ronaldo Viola e João Carvalho - O Rodeio E O Futebol
TTITLE7=Ronaldo Viola e João Carvalho - Velho Combatente
TTITLE8=Ronaldo Viola e João Carvalho - Rio de Cerveja
TTITLE9=Ronaldo Viola e João Carvalho - De Nova York À Goiás
TTITLE10=Ronaldo Viola e João Carvalho - Jeitão de Cabhoclo
TTITLE11=Ronaldo Viola e João Carvalho - Pé de Cana, Bom de Cama
TTITLE12=Ronaldo Viola e João Carvalho - Queima Do Alho
TTITLE13=Ronaldo Viola e João Carvalho - Rei da Pecuária
EXTD=
EXTT0=
EXTT1=
EXTT2=
EXTT3=
EXTT4=
EXTT5=
EXTT6=
EXTT7=
EXTT8=
EXTT9=
EXTT10=
EXTT11=
EXTT12=
EXTT13=
PLAYORDER=
